HIERARCHY
ROOT Hips
{
	OFFSET 0.00000 0.00000 0.00000
	CHANNELS 6 Xposition Yposition Zposition Zrotation Yrotation Xrotation 
	JOINT LHipJoint
	{
		OFFSET 0 0 0
		CHANNELS 3 Zrotation Yrotation Xrotation
		JOINT LeftUpLeg
		{
			OFFSET 1.88772 -1.62769 0.85636
			CHANNELS 3 Zrotation Yrotation Xrotation
			JOINT LeftLeg
			{
				OFFSET 2.39836 -6.58946 0.00000
				CHANNELS 3 Zrotation Yrotation Xrotation
				JOINT LeftFoot
				{
					OFFSET 2.78523 -7.65237 0.00000
					CHANNELS 3 Zrotation Yrotation Xrotation
					JOINT LeftToeBase
					{
						OFFSET 0.19551 -0.53715 1.90694
						CHANNELS 3 Zrotation Yrotation Xrotation
						End Site
						{
							OFFSET 0.00000 -0.00000 0.99735
						}
					}
				}
			}
		}
	}
	JOINT RHipJoint
	{
		OFFSET 0 0 0
		CHANNELS 3 Zrotation Yrotation Xrotation
		JOINT RightUpLeg
		{
			OFFSET -1.74282 -1.62769 0.85636
			CHANNELS 3 Zrotation Yrotation Xrotation
			JOINT RightLeg
			{
				OFFSET -2.36062 -6.48575 0.00000
				CHANNELS 3 Zrotation Yrotation Xrotation
				JOINT RightFoot
				{
					OFFSET -2.76258 -7.59014 0.00000
					CHANNELS 3 Zrotation Yrotation Xrotation
					JOINT RightToeBase
					{
						OFFSET -0.19308 -0.53048 2.03952
						CHANNELS 3 Zrotation Yrotation Xrotation
						End Site
						{
							OFFSET -0.00000 -0.00000 1.06031
						}
					}
				}
			}
		}
	}
	JOINT LowerBack
	{
		OFFSET 0 0 0
		CHANNELS 3 Zrotation Yrotation Xrotation
		JOINT Spine
		{
			OFFSET -0.08299 2.03160 -0.30721
			CHANNELS 3 Zrotation Yrotation Xrotation
			JOINT Spine1
			{
				OFFSET -0.01030 2.00603 0.13891
				CHANNELS 3 Zrotation Yrotation Xrotation
				JOINT Neck
				{
					OFFSET 0 0 0
					CHANNELS 3 Zrotation Yrotation Xrotation
					JOINT Neck1
					{
						OFFSET 0.04282 1.69578 0.19991
						CHANNELS 3 Zrotation Yrotation Xrotation
						JOINT Head
						{
							OFFSET -0.08665 1.66622 -0.03785
							CHANNELS 3 Zrotation Yrotation Xrotation
							End Site
							{
								OFFSET -0.03699 1.83329 -0.04094
							}
						}
					}
				}
				JOINT LeftShoulder
				{
					OFFSET 0 0 0
					CHANNELS 3 Zrotation Yrotation Xrotation
					JOINT LeftArm
					{
						OFFSET 3.04219 1.50803 -0.05347
						CHANNELS 3 Zrotation Yrotation Xrotation
						JOINT LeftForeArm
						{
							OFFSET 5.79199 -0.00000 0.00000
							CHANNELS 3 Zrotation Yrotation Xrotation
							JOINT LeftHand
							{
								OFFSET 3.49908 -0.00000 0.00000
								CHANNELS 3 Zrotation Yrotation Xrotation
								JOINT LeftFingerBase
								{
									OFFSET 0 0 0
									CHANNELS 3 Zrotation Yrotation Xrotation
									JOINT LeftHandIndex1
									{
										OFFSET 0.59386 -0.00000 0.00000
										CHANNELS 3 Zrotation Yrotation Xrotation
										End Site
										{
											OFFSET 0.47879 -0.00000 0.00000
										}
									}
								}
								JOINT LThumb
								{
									OFFSET 0 0 0
									CHANNELS 3 Zrotation Yrotation Xrotation
									End Site
									{
										OFFSET 0.48610 -0.00000 0.48610
									}
								}
							}
						}
					}
				}
				JOINT RightShoulder
				{
					OFFSET 0 0 0
					CHANNELS 3 Zrotation Yrotation Xrotation
					JOINT RightArm
					{
						OFFSET -3.30316 1.18853 0.11175
						CHANNELS 3 Zrotation Yrotation Xrotation
						JOINT RightForeArm
						{
							OFFSET -5.73799 -0.00000 0.00000
							CHANNELS 3 Zrotation Yrotation Xrotation
							JOINT RightHand
							{
								OFFSET -3.57916 -0.00000 -0.00000
								CHANNELS 3 Zrotation Yrotation Xrotation
								JOINT RightFingerBase
								{
									OFFSET 0 0 0
									CHANNELS 3 Zrotation Yrotation Xrotation
									JOINT RightHandIndex1
									{
										OFFSET -0.61558 -0.00000 0.00000
										CHANNELS 3 Zrotation Yrotation Xrotation
										End Site
										{
											OFFSET -0.49629 -0.00000 0.00000
										}
									}
								}
								JOINT RThumb
								{
									OFFSET 0 0 0
									CHANNELS 3 Zrotation Yrotation Xrotation
									End Site
									{
										OFFSET -0.50387 -0.00000 0.50387
									}
								}
							}
						}
					}
				}
			}
		}
	}
}
MOTION
Frames: 11
Frame Time: .0083333
7.4327 17.1033 -13.9401 2.3707 176.5800 10.2356 0.0000 0.0000 0.0000 -8.5869 -23.1497 -37.6905 2.0488 8.9669 25.6919 -0.3968 12.3969 -10.5097 0.5578 -4.7841 -13.2937 0.0000 0.0000 0.0000 29.8771 12.7877 2.0625 -0.8793 -5.9781 16.7209 -1.0022 2.0638 -18.3406 -0.3064 -3.5589 9.8388 -2.8904 1.7092 -0.6592 -1.5595 2.3558 -3.2545 -0.0370 1.2908 -3.0241 7.5774 8.4348 -3.4201 -8.6392 11.4301 10.3103 -3.2384 5.3884 4.5824 0.0000 -0.0000 0.0000 -77.5189 17.7120 25.5809 15.0054 -24.1536 -3.2282 -0.0000 0.0000 -12.9055 6.2289 -17.4193 -1.8714 -7.1250 0.0000 -0.0000 -14.2837 12.8508 11.1077 0.0000 -0.0000 0.0000 78.6402 -9.0849 48.5977 -43.2938 49.9047 -20.9252 0.0000 -0.0000 -9.0031 -18.1573 -31.9787 9.8533 7.1250 -0.0000 -0.0000 16.7628 -62.5185 -7.2438
7.4284 17.0903 -14.0801 2.3606 176.5510 10.2897 0.0000 0.0000 0.0000 -8.8538 -22.9386 -37.9563 1.9935 8.8524 25.3348 -0.4707 13.4178 -11.2722 0.3943 -4.0317 -11.1658 0.0000 0.0000 0.0000 29.8151 12.1445 2.6516 -0.8185 -5.7728 16.1265 -0.9933 2.4809 -18.1664 -0.4152 -4.1363 11.4603 -2.9811 1.7124 -0.7063 -1.6050 2.3645 -3.2973 -0.0329 1.2997 -3.0439 7.5976 8.5189 -3.6491 -8.7556 11.5496 10.4988 -3.2555 5.4296 4.6965 0.0000 -0.0000 0.0000 -77.4192 17.5809 25.4746 14.7937 -23.8580 -3.1420 -0.0000 0.0000 -12.5892 6.3904 -17.9455 -1.9764 -7.1250 0.0000 -0.0000 -14.1622 12.3284 11.1665 0.0000 -0.0000 0.0000 78.7854 -9.2442 48.5096 -43.6927 50.1117 -21.2308 0.0000 -0.0000 -9.1132 -17.6781 -32.3292 9.6728 7.1250 -0.0000 -0.0000 17.5882 -62.7287 -7.6991
7.4210 17.0954 -14.2283 2.2715 176.4860 10.3252 0.0000 0.0000 0.0000 -9.4253 -22.5102 -38.1486 1.9547 8.7711 25.0818 -0.5400 14.3627 -12.1075 0.3383 -3.7379 -10.3405 0.0000 0.0000 0.0000 29.6445 11.4292 3.2344 -0.7570 -5.5569 15.5041 -0.9658 2.6990 -17.8618 -0.3955 -4.0378 11.1829 -3.0708 1.7052 -0.8128 -1.7136 2.3650 -3.3701 -0.0927 1.3062 -3.0583 7.9508 8.5184 -3.8366 -9.1219 11.5594 10.7691 -3.4101 5.4136 4.8540 0.0000 -0.0000 0.0000 -77.2807 17.4797 25.1858 14.4859 -23.4250 -3.0186 -0.0000 0.0000 -12.2024 6.2388 -18.1414 -1.9495 -7.1250 0.0000 -0.0000 -14.2540 12.1478 11.2991 0.0000 -0.0000 0.0000 78.9951 -9.4222 48.5047 -44.0401 50.2895 -21.4977 0.0000 -0.0000 -9.2355 -16.1494 -32.5585 8.8575 7.1250 -0.0000 -0.0000 19.4794 -62.5517 -8.4776
7.4162 17.0832 -14.3707 2.5957 176.3290 10.3139 0.0000 0.0000 0.0000 -9.7704 -21.5140 -38.4126 1.9157 8.6882 24.8247 -0.6006 15.0925 -12.6679 0.2624 -3.2958 -9.1033 0.0000 0.0000 0.0000 29.9580 10.9554 3.9250 -0.7084 -5.3795 14.9941 -0.9423 2.8851 -17.6011 -0.3342 -3.7153 10.2771 -2.8262 1.8009 -0.7520 -1.7417 2.4919 -3.4419 -0.2648 1.3645 -3.1576 8.2936 8.4630 -3.7449 -9.3888 11.4886 10.6777 -3.5558 5.3832 4.8400 0.0000 -0.0000 0.0000 -77.0716 17.3976 24.9747 14.3449 -23.2256 -2.9628 -0.0000 0.0000 -11.8501 5.9539 -17.7085 -1.8170 -7.1250 0.0000 -0.0000 -14.4519 12.5870 11.3300 0.0000 -0.0000 0.0000 79.3308 -9.5864 48.2639 -44.3657 50.4539 -21.7485 0.0000 -0.0000 -8.9422 -16.3156 -32.0571 8.8311 7.1250 -0.0000 -0.0000 18.8680 -62.1243 -8.0108
7.4116 17.0677 -14.5106 2.6273 176.1570 10.3076 0.0000 0.0000 0.0000 -10.5799 -20.2297 -38.7581 1.8884 8.6296 24.6433 -0.6451 15.4728 -12.6876 0.2516 -3.2275 -8.9128 0.0000 0.0000 0.0000 29.9300 10.6163 4.6231 -0.6692 -5.2312 14.5692 -0.9198 3.2470 -17.3229 -0.4089 -4.1049 11.3719 -2.9161 1.9001 -0.6701 -1.8396 2.6220 -3.4937 -0.3235 1.4340 -3.2595 8.4494 8.4910 -3.4933 -9.4599 11.5255 10.2985 -3.6134 5.4232 4.6984 -0.0000 0.0000 0.0000 -76.8708 17.3025 24.9796 14.3738 -23.2666 -2.9742 -0.0000 0.0000 -11.6902 6.0330 -17.5587 -1.8262 -7.1250 0.0000 -0.0000 -14.4059 12.7276 11.2476 -0.0000 0.0000 0.0000 79.5823 -9.8984 47.9393 -44.8876 50.7133 -22.1517 0.0000 -0.0000 -8.4570 -18.8480 -32.7669 10.4676 7.1250 -0.0000 -0.0000 16.6411 -63.4509 -7.5540
7.4016 17.0553 -14.6539 2.3509 176.1680 10.4152 0.0000 0.0000 0.0000 -11.7460 -19.1239 -39.3084 1.8987 8.6519 24.7124 -0.6801 15.6627 -12.3850 0.3228 -3.6521 -10.0999 0.0000 0.0000 0.0000 29.5431 10.0890 5.2062 -0.6187 -5.0337 14.0047 -0.8956 3.4041 -17.0615 -0.3966 -4.0435 11.1992 -3.2175 1.8435 -0.8250 -1.9329 2.5573 -3.5024 -0.2443 1.4126 -3.1896 8.4961 8.6311 -3.1549 -9.7168 11.7364 9.8414 -3.7026 5.5355 4.5401 0.0000 0.0000 0.0000 -76.8603 17.2850 25.0643 14.4938 -23.4363 -3.0217 -0.0000 0.0000 -11.8562 6.2532 -17.4612 -1.8831 -7.1250 0.0000 -0.0000 -14.2666 12.8085 11.1065 0.0000 0.0000 0.0000 79.6246 -10.0949 47.9725 -45.2095 50.8707 -22.4012 0.0000 -0.0000 -8.4448 -22.4619 -35.1858 13.4000 7.1250 -0.0000 -0.0000 14.6031 -66.7786 -7.7314
7.3920 17.0393 -14.8007 2.5855 176.2120 10.5729 0.0000 0.0000 0.0000 -12.3474 -18.0610 -39.9113 1.9461 8.7528 25.0251 -0.6610 15.5398 -12.4924 0.3335 -3.7116 -10.2666 0.0000 0.0000 0.0000 29.7058 9.4882 5.8326 -0.5501 -4.7514 13.2009 -0.8597 3.4092 -16.7025 -0.3186 -3.6281 10.0326 -3.0726 1.7913 -0.9995 -1.8195 2.4985 -3.5583 -0.2018 1.3812 -3.1462 8.5694 8.7313 -2.7010 -10.0989 11.9030 9.4450 -3.8430 5.6201 4.3869 -0.0000 0.0000 0.0000 -76.9914 17.2829 24.9511 14.5166 -23.4685 -3.0308 -0.0000 0.0000 -11.8149 6.2602 -17.0972 -1.8472 -7.1250 0.0000 -0.0000 -14.2747 13.1622 11.0037 -0.0000 0.0000 0.0000 79.6440 -10.2791 48.0451 -45.4555 50.9897 -22.5921 0.0000 -0.0000 -8.4914 -26.4076 -31.9807 14.7351 7.1250 -0.0000 -0.0000 7.0527 -64.7309 -3.3752
7.3854 17.0209 -14.9494 3.2360 176.1530 10.5791 0.0000 0.0000 0.0000 -12.6657 -16.6357 -40.4027 2.0172 8.9018 25.4886 -0.6401 15.2369 -12.1057 0.4372 -4.2430 -11.7612 0.0000 0.0000 0.0000 30.3185 8.9206 6.7498 -0.4754 -4.4218 12.2665 -0.8032 3.4942 -16.1136 -0.2759 -3.3788 9.3351 -2.6187 1.8333 -1.0189 -1.5762 2.5512 -3.5510 -0.2041 1.3924 -3.1191 8.4062 8.7950 -2.7842 -10.2050 11.9986 9.3437 -3.8405 5.6551 4.3759 0.0000 0.0000 0.0000 -77.1848 17.0066 24.5765 14.3621 -23.2500 -2.9695 -0.0000 0.0000 -11.3864 6.4716 -17.3561 -1.9380 -7.1250 0.0000 -0.0000 -14.1283 12.8969 10.9647 0.0000 0.0000 0.0000 79.5982 -10.3915 48.0036 -45.6539 51.0848 -22.7464 0.0000 -0.0000 -8.4031 -20.8745 -31.8069 11.3647 7.1250 -0.0000 -0.0000 13.5439 -63.0572 -5.9938
7.3759 16.9996 -15.0960 3.7187 176.2020 10.4365 0.0000 0.0000 0.0000 -13.2820 -15.1842 -40.8334 2.1008 9.0729 26.0237 -0.6907 15.2569 -10.6768 0.4819 -4.4515 -12.3504 0.0000 0.0000 0.0000 30.7384 8.1402 7.7776 -0.4043 -4.0819 11.3071 -0.7460 3.4834 -15.5106 -0.1554 -2.5400 7.0007 -2.2129 1.8752 -0.9505 -1.4401 2.5976 -3.4360 -0.2903 1.3981 -3.0270 8.0406 8.8821 -3.6029 -9.9351 12.1020 9.7819 -3.6509 5.6728 4.6172 -0.0000 0.0000 0.0000 -77.2487 16.6789 24.4317 14.3169 -23.1859 -2.9517 -0.0000 0.0000 -11.1060 6.9426 -18.0744 -2.1635 -7.1250 0.0000 -0.0000 -13.8019 12.1656 10.9124 -0.0000 0.0000 0.0000 79.5593 -10.5042 47.9505 -45.7135 51.1133 -22.7928 0.0000 -0.0000 -8.5561 -17.5612 -32.0185 9.5251 7.1250 -0.0000 -0.0000 17.4600 -62.4039 -7.5076
7.3675 16.9799 -15.2411 3.8365 176.3240 10.4208 0.0000 0.0000 0.0000 -14.1053 -14.1809 -41.2381 2.1799 9.2312 26.5213 -0.7131 15.1918 -9.5341 0.1679 -2.6395 -7.2767 0.0000 0.0000 0.0000 30.7369 7.3716 8.6132 -0.3407 -3.7508 10.3767 -0.6864 3.5196 -14.8539 -0.0980 -2.0184 5.5566 -2.1344 1.8769 -0.9763 -1.4859 2.6002 -3.4046 -0.3790 1.3958 -2.9743 7.8813 9.0042 -3.9149 -9.6106 12.2478 10.0118 -3.4978 5.7429 4.7231 -0.0000 -0.0000 0.0000 -77.0685 16.5233 24.6198 14.3986 -23.3017 -2.9840 -0.0000 0.0000 -11.1726 7.2489 -18.3905 -2.2980 -7.1250 0.0000 -0.0000 -13.5966 11.8354 10.8360 -0.0000 -0.0000 0.0000 79.7006 -10.7675 47.9267 -45.7287 51.1205 -22.8046 0.0000 -0.0000 -8.7467 -16.8787 -32.0492 9.1465 7.1250 -0.0000 -0.0000 18.2415 -62.2592 -7.7931
7.3635 16.9598 -15.3899 3.6586 176.3230 10.3949 0.0000 0.0000 0.0000 -15.2327 -13.1992 -41.5203 2.2476 9.3639 26.9405 -0.6713 14.6425 -8.6744 0.0126 -0.7262 -1.9958 0.0000 0.0000 0.0000 30.4351 6.7304 9.4461 -0.2926 -3.4786 9.6142 -0.6207 3.8190 -14.0754 -0.1507 -2.5012 6.8929 -2.4877 1.8507 -0.9619 -1.5630 2.5679 -3.4724 -0.2637 1.3931 -3.0648 7.9041 9.2026 -3.2586 -9.6032 12.5189 9.5500 -3.5140 5.9072 4.4979 0.0000 0.0000 0.0000 -76.9385 16.5152 24.8294 14.4367 -23.3555 -2.9990 -0.0000 0.0000 -11.5182 7.4695 -18.6678 -2.4031 -7.1250 0.0000 -0.0000 -13.4487 11.5484 10.7932 0.0000 0.0000 0.0000 79.8288 -11.0811 47.9821 -45.8101 51.1592 -22.8680 0.0000 -0.0000 -8.4707 -16.6754 -32.4232 9.1242 7.1250 -0.0000 -0.0000 18.7821 -62.5597 -8.1659
